<svg xmlns="http://www.w3.org/2000/svg" xmlns:xlink="http://www.w3.org/1999/xlink" viewBox="0 0 508 508"><defs><style>.cls-1{fill:#a5b562;}.cls-2{fill:#636b2b;}.cls-3{fill:url(#Dégradé_sans_nom_38);}.cls-4{fill:url(#Dégradé_sans_nom_42);}.cls-5{fill:url(#Dégradé_sans_nom_38-2);}.cls-6{fill:#051f23;}.cls-7{fill:#0a4e5e;}.cls-8{fill:#191d23;}.cls-9{fill:#858f9e;}.cls-10{fill:none;stroke:#cdcbcb;stroke-linecap:round;stroke-linejoin:round;stroke-width:5px;}</style><linearGradient id="Dégradé_sans_nom_38" x1="210" y1="383.4" x2="298" y2="383.4" gradientUnits="userSpaceOnUse"><stop offset="0" stop-color="#4d4d4d"/><stop offset="0.31" stop-color="#b3b3b3"/><stop offset="0.64" stop-color="#b1b1b1"/><stop offset="0.76" stop-color="#aaa"/><stop offset="0.84" stop-color="#9f9f9f"/><stop offset="0.91" stop-color="#8e8e8e"/><stop offset="0.96" stop-color="#787878"/><stop offset="1" stop-color="#666"/></linearGradient><linearGradient id="Dégradé_sans_nom_42" x1="210" y1="369" x2="298" y2="369" gradientUnits="userSpaceOnUse"><stop offset="0" stop-color="#1a1a1a"/><stop offset="0.31" stop-color="#333"/><stop offset="0.67" stop-color="#353535"/><stop offset="0.79" stop-color="#3c3c3c"/><stop offset="0.88" stop-color="#474747"/><stop offset="0.96" stop-color="#585858"/><stop offset="1" stop-color="#666"/></linearGradient><linearGradient id="Dégradé_sans_nom_38-2" x1="77.6" y1="247" x2="439" y2="247" xlink:href="#Dégradé_sans_nom_38"/></defs><title>developpement</title><g id="Calque_2" data-name="Calque 2"><g id="Calque_1-2" data-name="Calque 1"><circle class="cls-1" cx="254" cy="254" r="254"/><path class="cls-2" d="M54.8,411.6A253,253,0,0,0,254,508c80.8,0,152.4-37.6,199.2-96.4Z"/><polygon class="cls-3" points="290.8 405.6 298 361.2 210 361.2 217.2 405.6 290.8 405.6"/><polygon class="cls-4" points="295.6 376.8 298 361.2 210 361.2 212.4 376.8 295.6 376.8"/><path class="cls-5" d="M425.66,367.2H90.49c-7.11,0-12.89-5.2-12.89-11.6V138.4c0-6.4,5.78-11.6,12.89-11.6H426.11c7.11,0,12.89,5.2,12.89,11.6V355.2C439,361.6,433.22,367.2,425.66,367.2Z"/><rect class="cls-6" x="98.8" y="148" width="317.2" height="174.4"/><rect class="cls-7" x="98.8" y="148" width="317.2" height="4"/><path class="cls-8" d="M315.2,411.6H192.8v-6A11.18,11.18,0,0,1,204,394.4h99.6a11.18,11.18,0,0,1,11.2,11.2v6Z"/><circle class="cls-8" cx="254" cy="342.8" r="12.8"/><path class="cls-9" d="M252.85,334H253l.18,0,1.47.13,1.53.13.7,0c.12,0,.13,0,.13.12s0,.5,0,.75a3.88,3.88,0,0,0,.1,1.26c.05.21.15.41.22.61v0l-.06,0c0,.09,0,.13-.1.09l0,.09s0,.05,0,.07h0l0-.15-.1,0h-.15l-.15,0s0-.07,0-.11v0c0-.25,0-.5,0-.76,0,0,0-.05-.06-.05h-.4l-.05,0c0,.07,0,.15,0,.22.18,0,.25.05.28.21a1.42,1.42,0,0,1-.07.5.85.85,0,0,1-.22.35s0,.06,0,.06a.22.22,0,0,1,.07.08c0,.07,0,.1,0,.16a.65.65,0,0,0-.11.12c0,.05,0,.09.06.08l.3,0c.11,0,.15,0,.15.1a.49.49,0,0,0,.12.36l0,.05.11.18.05,0a.37.37,0,0,0,0-.05l0-.15a.31.31,0,0,1,.24.16s0,.05.05.05a.26.26,0,0,1,.21.17l.07,0,.23-.11a.26.26,0,0,1,.28.06l.28.25,0,0,.15.09.12.1.68.39.16.05a1,1,0,0,1,.62.38l.87-.43h0l0,.35a.51.51,0,0,1,.17,0,1.43,1.43,0,0,1,.39.43.62.62,0,0,1,.06.2c0,.05,0,.11,0,.16q.08.48.16,1c0,.09,0,.18.06.27h0c0,.12.11.12.18.18l-.13,0,.16.07-.11.09-.17,0,.14.07a.69.69,0,0,1-.47.17l.17.08v0l-.23,0a.48.48,0,0,0-.3.08l-.21.1-.09,0,0,0a.22.22,0,0,1,0,.31l-.22.3a.08.08,0,0,0,0,.09,1.67,1.67,0,0,1,0,.28.19.19,0,0,1,0,.06h0l-.06-.25h0l-.41.83a.29.29,0,0,1,.19.21.74.74,0,0,1,0,.44l-.16.4a.22.22,0,0,0,0,.11c.08.44.17.88.26,1.31a.6.6,0,0,1,0,.41c-.18.39-.35.78-.52,1.17a4.5,4.5,0,0,0-.24.6,6.35,6.35,0,0,1-.42,1.23,2.5,2.5,0,0,1-.63.84l-.19.14h0l.09-.22h0l-.15.12v0a10.17,10.17,0,0,0,.58-2,6.26,6.26,0,0,0,.11-1.48c0-.07,0-.13,0-.2l-.26.09c-.14-.36-.22-.74-.34-1.1a.22.22,0,0,0,0,.08c0,.18.06.37.08.55a10.63,10.63,0,0,1,0,2.2,13.73,13.73,0,0,1-.36,1.94,1.12,1.12,0,0,1-.33.6l-.1.11V352l-.15.12a13.82,13.82,0,0,0,.14-5.68c-.08.09-.14.18-.21.26a.26.26,0,0,0-.06.24c.06.37.12.74.16,1.11a12.7,12.7,0,0,1,0,2.3A13.7,13.7,0,0,1,257,352a.92.92,0,0,1-.3.66l0,0-.09,0-1,0-.09,0-.54-.36a1.26,1.26,0,0,1-.39-.34,20.25,20.25,0,0,1-1.09-1.94,10.44,10.44,0,0,1-.73-1.92,1,1,0,0,1-.06-.28c0-.17,0-.34.06-.51a10.11,10.11,0,0,0,.08-1.46,4.08,4.08,0,0,0,0-.41.08.08,0,0,0-.05-.05.13.13,0,0,0-.07,0s0,0,0,.05a.09.09,0,0,1-.12.06h0l-.28-.07a1.19,1.19,0,0,1-.28-.13c-.19-.13-.36-.27-.54-.4a.56.56,0,0,1-.22-.6c0-.13.06-.26.08-.39s0-.42.07-.63a3,3,0,0,1,.26-.88.07.07,0,0,0,0-.06l-.17-.38a.21.21,0,0,1,0-.06.46.46,0,0,0,0-.12.16.16,0,0,1,0-.16c0-.05.07-.11.07-.16a.28.28,0,0,1,.12-.28s.06-.1.09-.14a.15.15,0,0,0,0-.21.18.18,0,0,0,0,.06.41.41,0,0,1-.18.32.17.17,0,0,0-.06.15.24.24,0,0,1-.07.23s0,.11,0,.16a.7.7,0,0,0,0,.16l.11.39,0,0s0,.06,0,.1a4.28,4.28,0,0,0-.28,1c0,.05,0,.1,0,.14-.36-.11-.72-.22-1.08-.31a3.66,3.66,0,0,0-1.12-.13,4.2,4.2,0,0,1-.53,0,5.33,5.33,0,0,1-1.8-.41,3.23,3.23,0,0,1-1-.59,3.15,3.15,0,0,1-.93-1.76l-.06-.31,0-.43a.94.94,0,0,0,0-.13,3.49,3.49,0,0,1,.13-.89,2.72,2.72,0,0,1,1.73-1.82.12.12,0,0,0,.09-.1c0-.25.1-.49.15-.74a.2.2,0,0,1,.07-.11l1.19-.82.11,0,1.42-.15a.16.16,0,0,1,.14,0c.43.43.88.85,1.31,1.29s1.06,1.12,1.55,1.71a10.78,10.78,0,0,1,.9,1.25.1.1,0,0,1,0,.08c-.07.2-.25.34-.36.51s-.25.3-.2.51h-.05l-.88.07c-.16,0-.16,0-.18.16h0c-.07,0-.14,0-.19.05a.11.11,0,0,0,0,.14c0-.15.14-.16.27-.1s0-.05,0-.07,0-.12.13-.13l.83-.07.19,0a.33.33,0,0,1,.05-.37l.23-.34.11-.14a1.12,1.12,0,0,0,.11-.16,1.09,1.09,0,0,1,.43-.51l.31-.18c-.08-.09-.16-.21-.25-.31a1.66,1.66,0,0,1-.42-.73c0-.1,0-.19-.05-.29a1.1,1.1,0,0,1-.1-.48v0c-.1-.12-.07-.25-.07-.38a.12.12,0,0,1,0-.08c.08-.08.07-.18.09-.28s0,0,0,0l-.42,0c-.05,0-.06,0-.07-.05s0-.22,0-.34Q252.9,334.81,252.85,334Zm.16,11.05v0c-.1.12-.19,0-.28,0h-.05l-.05,0-.17-.09-.08-.06a.36.36,0,0,1,0-.3.1.1,0,0,1,.06-.05.3.3,0,0,0,.25-.32.09.09,0,0,0-.09-.09h0l-.27.05-.34.08c-.11,0-.14,0-.14-.11a.2.2,0,0,1,0-.06,1.86,1.86,0,0,0,0-.7.25.25,0,0,0,0,.07,2.18,2.18,0,0,1-.05.63.37.37,0,0,0,0,.14.12.12,0,0,0,.13.11h0l.21,0,.26-.06.12,0c.06,0,.09,0,.1,0a.2.2,0,0,1-.19.24.16.16,0,0,0-.13.09.41.41,0,0,0,.11.44l0,0,.44.14h.07Zm-.88-3.63,0,0,.17.18a1.09,1.09,0,0,0,.71.21.87.87,0,0,1,.49.1s.05,0,.07,0c.25-.21.5-.42.74-.64s.38-.36.56-.55l.07-.11,0,0-.09.1-.09.12a12.92,12.92,0,0,1-1.17,1l-.06,0a1.53,1.53,0,0,0-.53-.08,1,1,0,0,1-.69-.25.13.13,0,0,1,0-.07c0-.08,0-.17,0-.25a.42.42,0,0,0-.13-.27.92.92,0,0,1,.11.49Zm7.83.72h0v.06a3.39,3.39,0,0,1,.1,1.06,2.75,2.75,0,0,1,.77-.38l0,0-.56.13Zm-6.9-1.89c0-.15.14-.11.23-.12h.08a1.8,1.8,0,0,0,.32-.14s.07,0,.11,0l.91.19.26.06,0,.12h0l.12-.17-.06,0-1.28-.26a.08.08,0,0,0-.1,0h0a.17.17,0,0,1-.07.07.94.94,0,0,1-.42.1C253,340.09,253,340.12,253.06,340.26Zm1.34.6h0v-.12c0-.11,0-.11-.11-.12l-.33-.05c0-.07,0-.12,0-.18s0-.08-.09-.09l-.23,0a.68.68,0,0,0-.41,0l.65.05v.69h0l.06-.41.32,0s.06,0,.06.06a1.15,1.15,0,0,0,0,.12Zm-1.41,4h0l.12,0h.65s.05,0,.05-.06c0-.39,0-.77,0-1.16a.45.45,0,0,0,0-.06.3.3,0,0,0,0,.13q0,.52-.06,1s0,.06-.06.06H253Zm4.21-1h0a.46.46,0,0,0,0-.07.92.92,0,0,0-.26-.48l-.89-.89-.21-.22a.07.07,0,0,0,0,.05,7.27,7.27,0,0,0,1,1.08.88.88,0,0,1,.24.32Zm3.65-3.27-.52-.28v0l.31.31a.06.06,0,0,1,0,.08h0l-.25.43-.07.12h0Zm0,.13h0l.11.16a.07.07,0,0,1,0,.09l-.26.42-.24.4h0l.69-.93Zm-7.11,2.35v0h0l-.05,0a1,1,0,0,1-.71,0,1.26,1.26,0,0,1-.78-.59.89.89,0,0,0-.33-.35l-.07,0h0l.09.08c-.13.11-.13.11-.12.16l0,0a.15.15,0,0,1,.26,0l.14.2a1.32,1.32,0,0,0,.75.58,1.15,1.15,0,0,0,.64,0Zm5.66-1.26a2.15,2.15,0,0,0-.78.22l-.12-.53h0l.06.69A2.57,2.57,0,0,1,259.44,341.86Zm1.09.69h0l.75-.35a.08.08,0,0,0,0-.07c0-.19,0-.38,0-.56v0a.34.34,0,0,0,0,.11c0,.15,0,.29,0,.44a.14.14,0,0,1-.06.08l-.33.19Zm-4.62-1.25h0l-1.26,1.1A7.39,7.39,0,0,0,255.91,341.29ZM257,343l.33-1h0l0,.06-.37.86a.06.06,0,0,0,0,.05Zm-2.71-.16a3.46,3.46,0,0,0-.05,1h0Zm.67-.15a1.17,1.17,0,0,0,0-.52A.68.68,0,0,0,255,342.71Zm4.6,2.26h0a1.56,1.56,0,0,1-.58.43.29.29,0,0,0,.23,0l.3-.29Zm-6.13.12c.26.07.27.07.3,0Zm-1.07.22-.35-.19c.1.09.19.21.35.19Zm4.74.15a.18.18,0,0,0,.23-.1Zm-3.75-.12,0,0s0-.07,0-.07l-.11,0v0Zm4.51.11,0,0-.23-.14,0,0Zm-5.21-.06a.2.2,0,0,0-.23,0Z"/><path class="cls-9" d="M263,339.12l0,.06-.57.81a.21.21,0,0,1-.09.07l-.61.2a.16.16,0,0,1-.11,0l-.61-.34a.09.09,0,0,1-.05-.08c0-.08,0-.16,0-.24H260l-.07,0c-.81-.44-1.62-.88-2.38-1.39l-.26-.2-.07-.07a.1.1,0,0,1,0-.08s.05,0,.08,0l.17.06h0l-.31-.33h0l.65.53h0l-.58-2,0,0,0,.06,3.9,3.47a.17.17,0,0,0,.18,0l1.52-.41Z"/><path class="cls-9" d="M261.58,341.79l-.14-1.21.77-.21.91-.24c.07,0,.09,0,.08.06s0,.21-.06.32a.1.1,0,0,1-.09.09l-.83.22a.33.33,0,0,0-.22.13.5.5,0,0,1-.3.19c-.16.05-.16.05-.15.21l0,.43Z"/><path d="M261.6,342.08v-.19c0,.06,0,.15.11.16v0h-.09Z"/><path class="cls-9" d="M250.07,334.7l.51-.13a.11.11,0,0,1,.07,0c.21.18.42.35.61.53a28.6,28.6,0,0,1,2.22,2.35.11.11,0,0,1,0,.07.83.83,0,0,0,.2.56l.34.41.06.08-.19.14-.23-.32a16.65,16.65,0,0,0-1.33-1.5c-.72-.74-1.47-1.45-2.23-2.15Z"/><path class="cls-9" d="M252.91,336.08l.42,0c.06,0,.08,0,.06.09s0,.07,0,.08-.08.17-.07.27,0,.06,0,.1c-.72-.76-1.49-1.44-2.25-2.16a8.27,8.27,0,0,1,1.67-.46Z"/><polyline class="cls-10" points="113.79 158.95 129 167.9 113.79 177.74"/><line class="cls-10" x1="136.62" y1="178.83" x2="150.82" y2="178.83"/></g></g></svg>